<svg preserveAspectRatio="none" width="100%" height="100%" overflow="visible" style="display: block;" viewBox="0 0 482 514" fill="none" xmlns="http://www.w3.org/2000/svg">
<g id="img">
<rect width="482" height="514" rx="22" fill="var(--fill-0, #EFF2F6)"/>
<path id="Vector" d="M287.429 217.714H194.571C192.596 217.714 191 219.31 191 221.286V292.714C191 294.69 192.596 296.286 194.571 296.286H287.429C289.404 296.286 291 294.69 291 292.714V221.286C291 219.31 289.404 217.714 287.429 217.714ZM221.58 233.786C225.52 233.786 228.723 236.989 228.723 240.929C228.723 244.868 225.52 248.071 221.58 248.071C217.641 248.071 214.437 244.868 214.437 240.929C214.437 236.989 217.641 233.786 221.58 233.786ZM278.935 282.569C278.773 282.706 278.567 282.781 278.355 282.781H203.634C203.143 282.781 202.741 282.379 202.741 281.888C202.741 281.676 202.819 281.475 202.953 281.308L221.96 258.763C222.272 258.384 222.842 258.339 223.221 258.652C223.254 258.685 223.299 258.719 223.333 258.763L234.426 271.933L252.071 251.007C252.384 250.627 252.953 250.583 253.333 250.895C253.366 250.929 253.411 250.962 253.444 251.007L279.069 281.319C279.359 281.688 279.315 282.257 278.935 282.569Z" fill="var(--fill-0, #9CB0C9)"/>
</g>
</svg>
