<svg preserveAspectRatio="none" width="100%" height="100%" overflow="visible" style="display: block;" viewBox="0 0 24 24" fill="none" xmlns="http://www.w3.org/2000/svg">
<g id="BtnNewsCard">
<rect width="24" height="24" fill="#002239"/>
<path id="Vector" d="M6.2814 12C6.22669 12 6.171 11.9125 6.16596 11.8628C6.13489 11.551 6.19047 11.1954 6.16618 10.8789C6.16038 10.8372 6.23314 10.7727 6.27034 10.7727H13.8581L13.8476 10.7368L12.5731 9.26191C12.4989 9.14099 12.5498 9.01743 12.7052 9L13.5636 9.00324C13.5965 9.01054 13.7191 9.11991 13.7546 9.15062C14.4838 9.78056 15.2001 10.4385 15.9101 11.0866C16.0033 11.1716 16.2269 11.3245 16.1342 11.4568C16.0804 11.5333 15.9095 11.6552 15.8329 11.7251C15.7326 11.8165 15.6323 11.9083 15.5319 11.9999L6.2814 12Z" fill="var(--fill-0, white)"/>
</g>
</svg>
